<svg viewBox="0 0 200 200" xmlns="http://www.w3.org/2000/svg">
  <!-- Background -->
  <defs>
    <linearGradient id="grad5" x1="0%" y1="0%" x2="100%" y2="100%">
      <stop offset="0%" style="stop-color:#FF7675;stop-opacity:1" />
      <stop offset="100%" style="stop-color:#D63031;stop-opacity:1" />
    </linearGradient>
  </defs>
  <circle cx="100" cy="100" r="100" fill="url(#grad5)"/>
  
  <!-- Head -->
  <circle cx="100" cy="70" r="34" fill="#FDBCB4"/>
  
  <!-- Hair - bob cut with bun -->
  <path d="M 68 55 Q 100 40 132 55 Q 140 65 132 85 L 68 85 Q 60 65 68 55" fill="#FF6B6B"/>
  
  <!-- Bun on top -->
  <circle cx="100" cy="42" r="10" fill="#FF6B6B"/>
  <circle cx="103" cy="38" r="8" fill="#FF8E72"/>
  
  <!-- Eyes with long lashes -->
  <circle cx="88" cy="70" r="4" fill="#333"/>
  <circle cx="112" cy="70" r="4" fill="#333"/>
  <line x1="85" y1="76" x2="83" y2="82" stroke="#333" stroke-width="1.5"/>
  <line x1="91" y1="76" x2="93" y2="82" stroke="#333" stroke-width="1.5"/>
  <line x1="109" y1="76" x2="107" y2="82" stroke="#333" stroke-width="1.5"/>
  <line x1="115" y1="76" x2="117" y2="82" stroke="#333" stroke-width="1.5"/>
  
  <!-- Rosy cheeks -->
  <circle cx="70" cy="75" r="6" fill="#FFB3BA" opacity="0.6"/>
  <circle cx="130" cy="75" r="6" fill="#FFB3BA" opacity="0.6"/>
  
  <!-- Cheerful smile -->
  <path d="M 85 82 Q 100 90 115 82" stroke="#333" stroke-width="2.5" fill="none" stroke-linecap="round"/>
  
  <!-- Body -->
  <ellipse cx="100" cy="138" rx="40" ry="54" fill="#FDBCB4"/>
  
  <!-- Top/Blouse with pattern -->
  <ellipse cx="100" cy="125" rx="42" ry="18" fill="#FF7675"/>
  <circle cx="85" cy="125" r="3" fill="#FDBCB4"/>
  <circle cx="100" cy="125" r="3" fill="#FDBCB4"/>
  <circle cx="115" cy="125" r="3" fill="#FDBCB4"/>
</svg>
