<svg viewBox="0 0 200 200" xmlns="http://www.w3.org/2000/svg">
  <!-- Background -->
  <defs>
    <linearGradient id="grad6" x1="0%" y1="0%" x2="100%" y2="100%">
      <stop offset="0%" style="stop-color:#1E90FF;stop-opacity:1" />
      <stop offset="100%" style="stop-color:#0047AB;stop-opacity:1" />
    </linearGradient>
  </defs>
  <circle cx="100" cy="100" r="100" fill="url(#grad6)"/>
  
  <!-- Head -->
  <circle cx="100" cy="70" r="33" fill="#E8D5C4"/>
  
  <!-- Hair - spiky/modern style -->
  <polygon points="100,37 110,40 115,35 120,42 130,38 125,50 135,55 120,60 125,70 100,75" fill="#2C3E50"/>
  <polygon points="100,37 90,40 85,35 80,42 70,38 75,50 65,55 80,60 75,70 100,75" fill="#2C3E50"/>
  
  <!-- Sunglasses -->
  <circle cx="82" cy="65" r="12" fill="none" stroke="#FFD700" stroke-width="2.5"/>
  <circle cx="118" cy="65" r="12" fill="none" stroke="#FFD700" stroke-width="2.5"/>
  <line x1="94" y1="65" x2="106" y2="65" stroke="#FFD700" stroke-width="2"/>
  <circle cx="82" cy="65" r="9" fill="#87CEEB" opacity="0.4"/>
  <circle cx="118" cy="65" r="9" fill="#87CEEB" opacity="0.4"/>
  
  <!-- Cool expression -->
  <path d="M 88 80 Q 100 84 112 80" stroke="#2C3E50" stroke-width="2" fill="none" stroke-linecap="round"/>
  
  <!-- Nose -->
  <line x1="100" y1="70" x2="100" y2="78" stroke="#D4A574" stroke-width="1"/>
  
  <!-- Body -->
  <ellipse cx="100" cy="135" rx="38" ry="50" fill="#E8D5C4"/>
  
  <!-- Jacket collar -->
  <polygon points="60,110 100,105 140,110 135,130 65,130" fill="#1E90FF"/>
  <circle cx="80" cy="120" r="3" fill="#FFD700"/>
  <circle cx="120" cy="120" r="3" fill="#FFD700"/>
  <circle cx="100" cy="122" r="3" fill="#FFD700"/>
</svg>
