<svg viewBox="0 0 200 200" xmlns="http://www.w3.org/2000/svg">
  <!-- Background -->
  <defs>
    <linearGradient id="grad7" x1="0%" y1="0%" x2="100%" y2="100%">
      <stop offset="0%" style="stop-color:#FF1493;stop-opacity:1" />
      <stop offset="100%" style="stop-color:#FF69B4;stop-opacity:1" />
    </linearGradient>
  </defs>
  <circle cx="100" cy="100" r="100" fill="url(#grad7)"/>
  
  <!-- Decorative stars around head -->
  <polygon points="50,40 55,50 65,50 57,56 60,66 50,60 40,66 43,56 35,50 45,50" fill="#FFD700"/>
  <polygon points="150,50 155,60 165,60 157,66 160,76 150,70 140,76 143,66 135,60 145,60" fill="#FFD700"/>
  
  <!-- Head -->
  <circle cx="100" cy="75" r="35" fill="#FDBCB4"/>
  
  <!-- Colorful hair segments -->
  <path d="M 70 55 Q 65 40 80 38 Q 85 52 75 65" fill="#FF6B9D"/>
  <path d="M 130 55 Q 135 40 120 38 Q 115 52 125 65" fill="#C44569"/>
  <path d="M 100 38 Q 110 25 115 40 Q 110 50 100 55" fill="#FFA500"/>
  
  <!-- Artistic eyes (different sizes) -->
  <circle cx="85" cy="73" r="5" fill="#333"/>
  <circle cx="115" cy="70" r="6" fill="#333"/>
  <circle cx="85" cy="73" r="2.5" fill="#FFD700"/>
  <circle cx="115" cy="70" r="3" fill="#FFD700"/>
  
  <!-- Playful expression -->
  <path d="M 82 85 Q 100 92 118 85" stroke="#333" stroke-width="2.5" fill="none" stroke-linecap="round"/>
  <line x1="95" y1="85" x2="93" y2="88" stroke="#FF6B9D" stroke-width="1.5"/>
  
  <!-- Tongue -->
  <ellipse cx="100" cy="98" rx="5" ry="4" fill="#FF69B4"/>
  
  <!-- Body -->
  <ellipse cx="100" cy="140" rx="40" ry="55" fill="#FDBCB4"/>
  
  <!-- Colorful top with patterns -->
  <ellipse cx="100" cy="120" rx="44" ry="20" fill="#FF1493"/>
  <circle cx="75" cy="120" r="4" fill="#FFD700"/>
  <circle cx="100" cy="120" r="4" fill="#FFA500"/>
  <circle cx="125" cy="120" r="4" fill="#FF69B4"/>
  <line x1="70" y1="115" x2="130" y2="125" stroke="#FFD700" stroke-width="2" opacity="0.6"/>
</svg>
