<svg viewBox="0 0 200 200" xmlns="http://www.w3.org/2000/svg">
  <!-- Background -->
  <defs>
    <linearGradient id="grad8" x1="0%" y1="0%" x2="100%" y2="100%">
      <stop offset="0%" style="stop-color:#4A90E2;stop-opacity:1" />
      <stop offset="100%" style="stop-color:#357ABD;stop-opacity:1" />
    </linearGradient>
  </defs>
  <circle cx="100" cy="100" r="100" fill="url(#grad8)"/>
  
  <!-- Head -->
  <circle cx="100" cy="68" r="32" fill="#F5DEB3"/>
  
  <!-- Hair - professional -->
  <path d="M 70 50 Q 60 60 65 80 L 135 80 Q 140 60 130 50 Q 115 40 100 38 Q 85 40 70 50" fill="#3D2817"/>
  
  <!-- Formal eyes -->
  <ellipse cx="88" cy="67" rx="3.5" ry="5" fill="#333"/>
  <ellipse cx="112" cy="67" rx="3.5" ry="5" fill="#333"/>
  
  <!-- Confident eyebrows -->
  <line x1="82" y1="58" x2="94" y2="57" stroke="#3D2817" stroke-width="2" stroke-linecap="round"/>
  <line x1="106" y1="57" x2="118" y2="58" stroke="#3D2817" stroke-width="2" stroke-linecap="round"/>
  
  <!-- Subtle smile -->
  <path d="M 88 75 Q 100 80 112 75" stroke="#333" stroke-width="1.5" fill="none" stroke-linecap="round"/>
  
  <!-- Nose -->
  <line x1="100" y1="65" x2="100" y2="73" stroke="#E6C8A4" stroke-width="1"/>
  
  <!-- Body - professional suit -->
  <ellipse cx="100" cy="135" rx="38" ry="50" fill="#F5DEB3"/>
  
  <!-- Suit jacket -->
  <polygon points="62,105 138,105 135,160 65,160" fill="#1C1C1C"/>
  
  <!-- Tie -->
  <polygon points="95,105 105,105 103,125 97,125" fill="#E74C3C"/>
  
  <!-- Dress shirt -->
  <rect x="75" y="105" width="50" height="25" fill="white"/>
  
  <!-- Lapels -->
  <polygon points="75,105 85,120 80,140" fill="#1C1C1C"/>
  <polygon points="125,105 115,120 120,140" fill="#1C1C1C"/>
</svg>
